<?xml version="1.0" encoding="UTF-8"?>
<svg width="220" height="260" viewBox="0 0 220 260" xmlns="http://www.w3.org/2000/svg">
  <defs>
    <radialGradient id="ringGradient" cx="50%" cy="50%" r="50%">
      <stop offset="0%" stop-color="#5da545"/>
      <stop offset="55%" stop-color="#5da545"/>
      <stop offset="60%" stop-color="#3f352d"/>
      <stop offset="85%" stop-color="#875446"/>
      <stop offset="100%" stop-color="#704135"/>
    </radialGradient>
  </defs>
  <rect width="220" height="260" rx="28" fill="#ffffff"/>
  <g transform="translate(20,25)">
    <circle cx="90" cy="70" r="64" fill="url(#ringGradient)" opacity="0.85"/>
    <circle cx="90" cy="70" r="46" fill="none" stroke="#583a31" stroke-width="5" opacity="0.65"/>
    <circle cx="90" cy="70" r="30" fill="#2d3a32" opacity="0.85"/>
    <path d="M90 48c14 10 20 22 18 34-1.3 9.9-10.1 17-20.1 17-9.9 0-18-7.1-19.9-17-2.3-12 4-24 22-34z" fill="#74b84c"/>
  </g>
  <g transform="translate(20,136)">
    <text x="90" y="28" text-anchor="middle" font-family="'Montserrat', 'Segoe UI', sans-serif" font-weight="700" font-size="34" fill="#373737">GRAND</text>
    <text x="90" y="64" text-anchor="middle" font-family="'Montserrat', 'Segoe UI', sans-serif" font-weight="700" font-size="34" fill="#373737">WORLD</text>
    <path d="M6 84c46 22 120 24 168 0" fill="none" stroke="#70b64c" stroke-width="4" stroke-linecap="round"/>
    <path d="M160 86c4 4 9 8 14 10-5-2-9-1-14 3" fill="none" stroke="#70b64c" stroke-width="3" stroke-linecap="round"/>
    <text x="90" y="102" text-anchor="middle" font-family="'Montserrat', 'Segoe UI', sans-serif" font-weight="600" font-size="20" fill="#b66b5b" letter-spacing="3">ELDER CARE</text>
    <text x="90" y="132" text-anchor="middle" font-family="'Montserrat', 'Segoe UI', sans-serif" font-size="12" fill="#373737" letter-spacing="4">ASSISTED LIVING  ·  CLINICS  ·  HOME NURSING</text>
  </g>
</svg>
